<svg xmlns="http://www.w3.org/2000/svg" fill="none" viewBox="0 0 64 64"><g><path fill="#fff" d="M0 0h64v64H0z"/><path fill="#993" d="M64 0H0v64h64V0z"/><path fill="#FC9" d="m40.33 41.47-14.83.45V15.54h19.32l1.3 19.22a6 6 0 0 1-5.79 6.71z"/><path fill="#FF9" d="m58.05 64-5.49-10.48c-2.12-3.65-6.42-6.1-11.32-6.48l-8.77-.67c-.85-.06-1.71-.06-2.57 0l-8.77.67c-4.9.37-9.2 2.83-11.32 6.48L4.33 64h53.72z"/><path fill="#FC9" d="M31.12 53.8a5.62 5.62 0 0 1-5.62-5.63V30.61h11.24v17.56c0 3.11-2.52 5.62-5.62 5.62z"/><path fill="#1F1919" d="M42.24 20.82H26.5v-8.64h21.2v2.13c0 3.01-2.44 6.51-5.46 6.51zm-23.51 12.8v-13.4h6.75v19.03h-2.17c-2.53 0-4.58-3.1-4.58-5.63z"/><path fill="#333" d="M26.54 31.53a8.95 8.95 0 1 0 0-17.91 8.95 8.95 0 0 0 0 17.91z"/><path fill="#fff" d="M23.08 31.17a12.71 12.71 0 1 0 0-25.42 12.71 12.71 0 0 0 0 25.42z"/><path fill="#fff" d="M33.4 38.2a8.88 8.88 0 1 0 0-17.76 8.88 8.88 0 0 0 0 17.76z"/><path fill="#660" d="m31.26 18.03 2.84-1.37-1.64-4.25-3.03.88a8.05 8.05 0 0 0-.87-.93L29.6 9.4l-4.16-1.86-1.52 2.76a7.69 7.69 0 0 0-1.27-.03l-1.37-2.84-4.25 1.64.88 3.03c-.33.26-.64.56-.93.87l-2.97-1.04-1.86 4.16 2.76 1.52c-.04.42-.05.84-.03 1.27l-2.84 1.37 1.64 4.26 3.03-.88c.27.33.56.64.88.92l-1.04 2.98 4.16 1.85 1.51-2.76c.42.05.85.06 1.27.03l1.37 2.84 4.26-1.63-.88-3.03c.33-.27.64-.56.92-.88l2.98 1.04 1.85-4.16-2.76-1.51c.04-.43.05-.85.03-1.28zm-6 1.56a2.09 2.09 0 1 1-3.82-1.7 2.09 2.09 0 0 1 3.81 1.7z"/><path fill="#333" d="M40.51 30.8v-2.96l-2.04-.17c-.09-.27-.2-.52-.32-.77l1.32-1.57-2.1-2.1-1.57 1.33c-.24-.13-.5-.24-.76-.32l-.17-2.05H31.9l-.17 2.05c-.26.08-.52.2-.76.32l-1.57-1.33-2.1 2.1 1.32 1.57c-.12.25-.23.5-.32.77l-2.04.17v2.96l2.04.17c.09.27.2.52.32.77l-1.32 1.57 2.1 2.1 1.57-1.33c.24.13.5.24.76.32l.17 2.05h2.97l.17-2.05c.26-.08.52-.19.76-.32l1.57 1.33 2.1-2.1-1.32-1.57c.12-.25.23-.5.32-.77l2.04-.17zm-7.12 0a1.49 1.49 0 1 1 0-2.97 1.49 1.49 0 0 1 0 2.97z"/></g></svg>
