<svg xmlns="http://www.w3.org/2000/svg" fill="none" viewBox="0 0 64 64"><path fill="#633" d="M64 0H0v64h64V0z"/><path fill="#fff" d="M30.9 24.6c1.3 0 2.4-1 2.4-2.4v-3h14.5v3c0 1.3 1 2.4 2.4 2.4 2.1 0 3.8 1.7 3.8 3.8v25c0 1.9-1.4 3.3-3.2 3.3H30.2a3.2 3.2 0 01-3.2-3.2v-25c0-2.2 1.8-3.9 3.9-3.9z"/><path fill="#FCC" d="M33.5 19.8h14c.7 0 1.3-.6 1.3-1.3V18H32.3v.5c0 .7.5 1.3 1.2 1.3z"/><path fill="#FF9796" d="M30 18h21c.3 0 .6-.2.6-.6v-6.1c0-.7-.5-1.3-1.3-1.3H30.7c-.7 0-1.3.6-1.3 1.3v6.1c0 .4.3.7.7.7zM27 53.1h19.4v-24H27v24z"/><path fill="#fff" d="M19.7 56.7c6.6 0 11.9-5.1 12.3-11.6H7.4c.4 6.5 5.7 11.6 12.3 11.6zM19.7 32c-6.5 0-11.9 5.2-12.3 11.7H32A12.3 12.3 0 0019.7 32z"/><path fill="#C66" d="M32 43.7H7.4V45H32v-.7-.7zM46.5 29.1h-3.8v24h3.8v-24z"/></svg>