<svg xmlns="http://www.w3.org/2000/svg" fill="none" viewBox="0 0 64 64">
  <rect width="64" height="64" fill="#fff"/>
  <path fill="#9AD5CF" d="M64 0H0v64h64V0z"/>
  <path fill="#333" d="M25.78 15.38h-7.11V8.4h10.6v3.47a3.5 3.5 0 01-3.49 3.5z"/>
  <path fill="#633" d="M52.23 33.77h-8.66a5.89 5.89 0 01-5.88-5.89V15.62h14.55v18.15h-.01z"/>
  <path fill="#fff" d="M23.89 27.63h-5.8l-8.4 3.28a6.1 6.1 0 00-3.88 5.7v13.91l2.95 2.95L8.59 64h26.15l.17-27.97a6.1 6.1 0 00-4.26-5.82c-3.14-1-6.84-2.67-6.76-2.58z"/>
  <path fill="#DD9E75" d="M20.99 30.32a2.9 2.9 0 01-2.9-2.9V16.09h5.8v11.35c0 1.6-1.3 2.9-2.9 2.9z"/>
  <path fill="#DD9E75" d="M22.36 23.68l3.34-.17a2.1 2.1 0 001.97-2.3l-.4-8.64a2.09 2.09 0 00-2.33-1.86l-5.1.04-1.75 3.9 4.27 9.03z"/>
  <path fill="#333" d="M18.93 17.09a4.35 4.35 0 100-8.7 4.35 4.35 0 000 8.7z"/>
  <path fill="#333" d="M18.16 22.32h-.23a3.35 3.35 0 01-3.34-3.35V12.6h3.57v9.72z"/>
  <path fill="#066" d="M45.1 27.06h-3.98l-3.4 1.81a5.73 5.73 0 00-2.96 6.3L34.84 50l-.11 14h20.76l-.58-15.37L57.56 34a4.05 4.05 0 00-3.08-4.63l-9.37-2.3z"/>
  <path fill="#066" d="M51.03 38.91l2.68 6.96-9.22 7.86 1.76 4.05 12.47-6.75a3.51 3.51 0 001.81-3.75l-2.87-14.72c-.4-2.88-4.02-4-6.1-1.89l-.9 4.21a6.76 6.76 0 00.37 4.03zM34.9 32.3l-2.84 10.58h6.27L34.91 32.3z"/>
  <path fill="#DD9E75" d="M19.38 17.79a1.42 1.42 0 100-2.84 1.42 1.42 0 000 2.84z"/>
  <path fill="#D65129" d="M43.95 20.45a5.65 5.65 0 100-11.31 5.65 5.65 0 000 11.31z"/>
  <path fill="#633" d="M44.9 23.43a7.37 7.37 0 100-14.74 7.37 7.37 0 000 14.74z"/>
  <path fill="#FFB681" d="M47.22 14.66l-7.94-.96-.54 1.97 1.82 7.75c.24.78.9 1.36 1.7 1.5l2.26.36 2.03-.11.67-10.51z"/>
  <path fill="#FFB681" d="M45.03 28.45c-.98 0-1.79-.96-1.78-2.14l.03-9.91 3.59.01-.03 9.91c-.01 1.18-.82 2.13-1.8 2.13z"/>
  <path fill="#066" d="M47.68 29.84h-4.55a2 2 0 01-2-2v-1.81h6.55v3.81z"/>
  <path fill="#633" d="M38.9 17.03a.89.89 0 01-.88-1.04 5.39 5.39 0 0110.66 1.04H38.9z"/>
  <path fill="#633" d="M52.19 34.44H50.2a4.9 4.9 0 01-4.9-4.91V15.5h6.88v18.94h.01z"/>
  <path fill="#fff" d="M24.66 30.63h-7.39V25h5.82c.87 0 1.57.7 1.57 1.56v4.07z"/>
  <path fill="#333" d="M23.03 14.63h-1.67V9.88h6.42a4.75 4.75 0 01-4.75 4.75z"/>
  <path fill="#0A847A" d="M17.83 39.25h-5.48v-2.36h3.12c1.3 0 2.36 1.06 2.36 2.36z"/>
  <path fill="#fff" d="M42.62 40.75H21.39V64h21.23V40.75z"/>
  <path fill="#0A847A" d="M21.39 40.75h21.23V64h2.1V40.08c0-1.24-1.01-2.24-2.24-2.24H21.53c-1.24 0-2.24 1-2.24 2.24V64h2.1V40.75z"/>
  <path fill="#fff" d="M26.5 57.35a2.76 2.76 0 110-5.5 2.76 2.76 0 010 5.5zm0-8.27a2.76 2.76 0 110-5.51 2.76 2.76 0 010 5.51z"/>
  <path fill="#029788" d="M26.5 43.57a2.76 2.76 0 100 5.51 2.76 2.76 0 000-5.51zM40.26 44.87h-9.23v2.92h9.23v-2.92zM26.5 51.85a2.76 2.76 0 100 5.51 2.76 2.76 0 000-5.51zM40.26 53.15h-9.23v2.91h9.23v-2.91zM29.24 62.88A2.76 2.76 0 1023.97 64H29c.16-.34.24-.72.24-1.12zM40.26 61.42h-9.23V64h9.23v-2.58z" opacity=".2"/>
  <path fill="#DD9E75" d="M22.96 48.52l.01 4.86 7.68-.03c1.06 0 2.03-.6 2.49-1.55l.9-1.86 2.04.02c.74 0 1.35-.6 1.35-1.34v-.09l-14.47-.01z"/>
  <path fill="#fff" d="M7.12 35.17c-.21-.59-1.07-.54-1.2.08l-2.1 11.03a6.08 6.08 0 005.84 7.76H24.9l-.07-5.98-14.41-2.03-3.3-10.86z"/>
</svg>
